<?xml version="1.0" encoding="UTF-8" standalone="no"?>
<svg
   xmlns:dc="http://purl.org/dc/elements/1.1/"
   xmlns:cc="http://creativecommons.org/ns#"
   xmlns:rdf="http://www.w3.org/1999/02/22-rdf-syntax-ns#"
   xmlns:svg="http://www.w3.org/2000/svg"
   xmlns="http://www.w3.org/2000/svg"
   id="svg8"
   version="1.1"
   viewBox="0 0 183.00298 183.00298"
   height="183.00298mm"
   width="183.00298mm">
  <defs
     id="defs2" />
  <metadata
     id="metadata5">
    <rdf:RDF>
      <cc:Work
         rdf:about="">
        <dc:format>image/svg+xml</dc:format>
        <dc:type
           rdf:resource="http://purl.org/dc/dcmitype/StillImage" />
        <dc:title />
      </cc:Work>
    </rdf:RDF>
  </metadata>
  <g
     transform="translate(-13.00893,-56.998512)"
     id="layer1">
    <path
       id="rect4487"
       d="M 17.00893,60.998512 H 192.01191 V 236.00149 H 17.00893 Z"
       style="fill:none;fill-opacity:1;stroke:#ffffff;stroke-width:4;stroke-linecap:butt;stroke-linejoin:miter;stroke-miterlimit:4;stroke-dasharray:none;stroke-dashoffset:0;stroke-opacity:1" />
    <g
       id="text4591"
       style="font-style:normal;font-variant:normal;font-weight:normal;font-stretch:normal;font-size:10.58333302px;line-height:6.61458302px;font-family:'Source Sans Pro';-inkscape-font-specification:'Source Sans Pro';letter-spacing:0px;word-spacing:0px;fill:#ffffff;fill-opacity:1;stroke:none;stroke-width:0.26458332px;stroke-linecap:butt;stroke-linejoin:miter;stroke-opacity:1"
       transform="rotate(45.816364)"
       aria-label="x#fHakx">
      <path
         id="path14"
         style="font-style:normal;font-variant:normal;font-weight:normal;font-stretch:normal;font-size:50.79999924px;font-family:'Source Sans Pro';-inkscape-font-specification:'Source Sans Pro';fill:#ffffff;fill-opacity:1;stroke:none;stroke-width:0.26458332px;stroke-opacity:1"
         d="m 95.638591,40.897575 h 4.368799 l 3.3528,-5.7404 c 0.8128,-1.524 1.6256,-2.997199 2.4892,-4.419599 h 0.2032 c 0.9144,1.4224 1.8288,2.946399 2.6924,4.419599 l 3.6068,5.7404 h 4.5212 l -8.0264,-12.445999 7.4676,-12.2428 h -4.3688 l -2.9972,5.4356 c -0.762,1.3208 -1.524,2.7432 -2.2352,4.1148 h -0.2032 c -0.8636,-1.3716 -1.6764,-2.794 -2.4384,-4.1148 l -3.302,-5.4356 h -4.521199 l 7.467599,11.7856 z" />
      <path
         id="path16"
         style="font-style:normal;font-variant:normal;font-weight:normal;font-stretch:normal;font-size:50.79999924px;font-family:'Source Sans Pro';-inkscape-font-specification:'Source Sans Pro';fill:#ffffff;fill-opacity:1;stroke:none;stroke-width:0.26458332px;stroke-opacity:1"
         d="m 122.12126,40.897575 h 2.7432 l 1.27,-10.363199 h 6.7056 l -1.2192,10.363199 h 2.6924 l 1.27,-10.363199 h 4.6736 v -2.8956 h -4.318 l 0.9144,-7.5184 h 4.4196 v -2.9464 h -4.1148 l 1.2192,-9.2964001 h -2.6924 l -1.2192,9.2964001 h -6.7564 l 1.1684,-9.2964001 h -2.6924 l -1.1684,9.2964001 h -4.6736 v 2.9464 h 4.318 l -0.9144,7.5184 h -4.4196 v 2.8956 h 4.064 z m 4.3688,-13.258799 0.9144,-7.5184 h 6.7056 l -0.9144,7.5184 z" />
      <path
         id="path18"
         style="font-style:normal;font-variant:normal;font-weight:normal;font-stretch:normal;font-size:50.79999924px;font-family:'Source Sans Pro';-inkscape-font-specification:'Source Sans Pro';fill:#ffffff;fill-opacity:1;stroke:none;stroke-width:0.26458332px;stroke-opacity:1"
         d="m 147.62763,40.897575 h 4.1656 V 19.612376 h 5.2324 v -3.4036 h -5.2324 v -3.9116 c 0,-3.1496001 1.1176,-4.7752001 3.4544,-4.7752001 0.9144,0 1.8796,0.2032 2.794,0.6096 l 0.9144,-3.2004 c -1.1176,-0.4572 -2.5908,-0.8128 -4.1148,-0.8128 -4.9276,0 -7.2136,3.1496 -7.2136,8.1788001 v 3.9116 l -3.3528,0.254 v 3.1496 h 3.3528 z" />
      <path
         id="path20"
         style="font-style:normal;font-variant:normal;font-weight:normal;font-stretch:normal;font-size:50.79999924px;font-family:'Source Sans Pro';-inkscape-font-specification:'Source Sans Pro';fill:#ffffff;fill-opacity:1;stroke:none;stroke-width:0.26458332px;stroke-opacity:1"
         d="m 162.20564,40.897575 h 4.2164 V 25.200376 h 15.494 v 15.697199 h 4.2672 V 7.5727759 h -4.2672 V 21.542776 h -15.494 V 7.5727759 h -4.2164 z" />
      <path
         id="path22"
         style="font-style:normal;font-variant:normal;font-weight:normal;font-stretch:normal;font-size:50.79999924px;font-family:'Source Sans Pro';-inkscape-font-specification:'Source Sans Pro';fill:#ffffff;fill-opacity:1;stroke:none;stroke-width:0.26458332px;stroke-opacity:1"
         d="m 200.6279,41.507175 c 3.0988,0 5.842,-1.6256 8.1788,-3.556 h 0.1524 l 0.3556,2.9464 h 3.4544 V 25.759176 c 0,-6.1468 -2.54,-10.16 -8.5852,-10.16 -3.9624,0 -7.4168,1.7272 -9.7028,3.2004 l 1.6256,2.8956 c 1.9304,-1.3208 4.5212,-2.6416 7.366,-2.6416 4.064,0 5.08,3.048 5.08,6.1976 -10.5156,1.1684 -15.1384,3.8608 -15.1384,9.245599 0,4.4196 3.0988,7.0104 7.2136,7.0104 z m 1.2192,-3.3528 c -2.4384,0 -4.3688,-1.1684 -4.3688,-3.9624 0,-3.149599 2.8448,-5.181599 11.0744,-6.197599 v 6.857999 c -2.3876,2.1336 -4.318,3.302 -6.7056,3.302 z" />
      <path
         id="path24"
         style="font-style:normal;font-variant:normal;font-weight:normal;font-stretch:normal;font-size:50.79999924px;font-family:'Source Sans Pro';-inkscape-font-specification:'Source Sans Pro';fill:#ffffff;fill-opacity:1;stroke:none;stroke-width:0.26458332px;stroke-opacity:1"
         d="m 220.53674,40.897575 h 4.1148 v -6.5024 l 4.6228,-5.384799 7.2136,11.887199 h 4.572 l -9.398,-14.782799 8.2804,-9.906 h -4.6228 l -10.5156,13.0048 h -0.1524 V 4.7279759 h -4.1148 z" />
      <path
         id="path26"
         style="font-style:normal;font-variant:normal;font-weight:normal;font-stretch:normal;font-size:50.79999924px;font-family:'Source Sans Pro';-inkscape-font-specification:'Source Sans Pro';fill:#ffffff;fill-opacity:1;stroke:none;stroke-width:0.26458332px;stroke-opacity:1"
         d="m 241.78781,40.897575 h 4.3688 l 3.3528,-5.7404 c 0.8128,-1.524 1.6256,-2.997199 2.4892,-4.419599 h 0.2032 c 0.9144,1.4224 1.8288,2.946399 2.6924,4.419599 l 3.6068,5.7404 h 4.5212 l -8.0264,-12.445999 7.4676,-12.2428 h -4.3688 l -2.9972,5.4356 c -0.762,1.3208 -1.524,2.7432 -2.2352,4.1148 h -0.2032 c -0.8636,-1.3716 -1.6764,-2.794 -2.4384,-4.1148 l -3.302,-5.4356 h -4.5212 l 7.4676,11.7856 z" />
    </g>
    <path
       id="path4593"
       d="m 135.09524,61.218747 56.88541,56.885433"
       style="fill:none;fill-rule:evenodd;stroke:#ffffff;stroke-width:4;stroke-linecap:butt;stroke-linejoin:miter;stroke-miterlimit:4;stroke-dasharray:none;stroke-opacity:1" />
    <path
       id="path4593-5"
       d="m 150.1397,60.766175 42.4825,42.482515"
       style="fill:none;fill-rule:evenodd;stroke:#ffffff;stroke-width:4;stroke-linecap:butt;stroke-linejoin:miter;stroke-miterlimit:4;stroke-dasharray:none;stroke-opacity:1" />
  </g>
</svg>
